<?xml version="1.0" encoding="utf-8"?>
<!-- Generator: Adobe Illustrator 16.0.3, SVG Export Plug-In . SVG Version: 6.00 Build 0)  -->
<!DOCTYPE svg PUBLIC "-//W3C//DTD SVG 1.1//EN" "http://www.w3.org/Graphics/SVG/1.1/DTD/svg11.dtd">
<svg version="1.1" id="Layer_1" xmlns="http://www.w3.org/2000/svg" xmlns:xlink="http://www.w3.org/1999/xlink" x="0px" y="0px"
	 width="397px" height="154px" viewBox="0 0 397 154" enable-background="new 0 0 397 154" xml:space="preserve">
<rect fill="#FFFFFF" width="397" height="154"/>
<g>
	<path fill-rule="evenodd" clip-rule="evenodd" fill="#0558A6" d="M82.24,89.431c0.852-1.988,0.56-4.122,0.663-6.181
		c0.239-4.729,0.796-9.547,0.154-14.18c-0.436-3.148,1.125-3.219,2.981-3.84c1.195-0.398,2.212-1.248,3.55-1.329
		c1.054-0.063,1.477,0.168,1.436,1.381c-0.296,8.703-0.509,17.407-0.742,26.114c-0.012,0.477-0.348,1.087,0.246,1.379
		c0.44,0.216,0.847-0.214,1.215-0.441c0.932-0.575,1.81-1.239,2.752-1.798c4.145-2.454,8.371-0.347,8.752,4.406
		c0.539,6.706-1.823,12.656-4.951,18.382c-1.517,2.776-3.268,5.408-5.116,7.975c-0.151,0.21-0.26,0.521-0.464,0.61
		c-1.922,0.83-1.451,2.054-0.611,3.57c-3.231-2.4-7.499-3.016-9.864-6.582c0-0.516,0-1.032,0-1.551
		c1.287-3.489,0.825-6.979,0-10.468C82.24,101.063,82.24,95.246,82.24,89.431z M90.826,113.754c0.978-0.213,1.192-0.87,1.244-1.463
		c0.071-0.802-0.281-1.632,1.188-1.362c0.708,0.13,0.823-0.634,0.332-1.23c-0.401-0.487-1.346-0.574-1.133-1.704
		c0.784,0.407,2.25,0.717,2.251,0.312c0.009-1.527,1.62-2.355,1.611-3.378c-0.018-1.874,3.037-2.938,1.197-5.098
		c-0.003-0.004,0.148-0.139,0.226-0.213c1.664-1.596,1.609-5.183-0.073-6.652c-0.574-0.5-1.191-0.619-1.744-0.151
		c-2.727,2.304-5.274,4.702-5.597,8.625C89.988,105.559,91.097,109.575,90.826,113.754z M86.862,114.575
		c0.482-1.72-0.137-3.413-0.184-5.118C86.381,111.173,86.423,112.878,86.862,114.575z"/>
	<path fill-rule="evenodd" clip-rule="evenodd" fill="#F8FAFC" d="M82.24,106.879c0.825,3.488,1.287,6.979,0,10.468
		C82.24,113.857,82.24,110.367,82.24,106.879z"/>
	<path fill-rule="evenodd" clip-rule="evenodd" fill="#0759A7" d="M210.604,59.553c2.163,0.251,3.75,0.943,5.386,1.435
		c0.933,0.28,0.704,1.115,0.729,1.792c0.306,7.99,0.571,15.984,0.915,23.973c0.15,3.538,0.451,7.071,0.685,10.638
		c0.731-0.112,0.686-0.739,0.901-1.147c1.439-2.712,3.184-5.162,5.837-6.834c4.241-2.676,9.642-0.839,11.073,3.948
		c2.097,7.011,0.567,13.62-2.561,20.016c-1.121,2.29-2.688,4.023-4.93,5.25c-1.809,0.985-3.644,2.044-4.103,4.342
		c-0.155,0.772-0.806,0.773-1.353,0.836c-4.032,0.458-7.478-1.785-8.688-5.761c-0.409-1.345-0.778-2.797-0.709-4.177
		c0.294-5.835-0.53-11.56-1.231-17.323c-1.098-9.049-0.828-18.151-0.473-27.244c0.038-0.965,0.008-1.937,0.048-2.902
		C212.227,64.091,212.578,61.752,210.604,59.553z M219.287,106.807c0.07,0.846,0.101,1.62,0.205,2.386
		c0.453,3.319,3.764,4.948,6.622,3.265c2.06-1.215,3.574-2.943,4.633-5.063c1.673-3.353,2.299-6.949,2.306-10.659
		c0.004-3.591-2.364-5.096-5.502-3.349C222.307,96.309,219.49,100.812,219.287,106.807z M232.789,92.316
		c-2.381-3.922-8.164-2.105-11.334,3.773C224.943,93.07,227.743,89.123,232.789,92.316z M213.941,66.878c-0.084,0-0.17,0-0.254,0
		c0,3.136,0,6.271,0,9.407c0.084,0,0.17-0.001,0.254-0.001C213.941,73.148,213.941,70.014,213.941,66.878z"/>
	<path fill-rule="evenodd" clip-rule="evenodd" fill="#0558A6" d="M334.232,90.848c-1.606,0.569-2.857,1.075-4.146,1.453
		c-1.541,0.449-3.064,0.438-4.398-0.656c-1.757-1.438-1.672-2.753,0.37-3.853c2.438-1.311,4.907-2.577,7.433-3.713
		c1.199-0.541,1.711-1.333,2.036-2.551c1.118-4.159,1.112-8.424,1.404-12.667c0.045-0.681-0.545-1.755,0.563-1.978
		c0.996-0.201,2.055-0.512,3.094,0.291c1.037,0.802,1.546,1.333,0.717,2.743c-1.474,2.504-0.972,5.393-1.005,8.149
		c-0.037,2.825-0.012,2.713,2.801,2.658c4.224-0.081,8.201,0.839,11.577,3.579c0.496,0.402,0.92,0.896,1.361,1.36
		c0.283,0.301,0.438,0.688,0.24,1.063c-0.24,0.452-0.693,0.207-1.035,0.151c-2.226-0.36-4.441-0.807-6.675-1.119
		c-1.206-0.171-2.451-0.256-3.662-0.162c-3.672,0.289-5.006,1.639-5.136,5.241c-0.263,7.241-0.327,14.469,2.581,21.33
		c0.703,1.667,1.613,3.215,2.575,4.745c0.636,1.015,1.233,1.103,2.175,0.458c0.739-0.507,1.636-0.815,2.167-1.58
		c0.612-0.88,0.875-1.744-0.353-2.414c-0.442-0.24-0.886-0.582-1.166-0.991c-0.563-0.818-0.412-1.537,0.682-1.652
		c2.358-0.245,4.319,0.62,5.824,2.422c1.255,1.503,0.347,3.02-0.333,4.328c-1.005,1.937-2.308,3.719-3.491,5.562
		c-0.331,0.514-0.866,0.738-1.416,0.955c-3.165,1.253-8.228,0.057-10.485-2.521c-4.352-4.969-5.798-10.961-6.028-17.36
		C332.346,99.722,332.961,95.405,334.232,90.848z M343.741,120.628c-1.321-0.448-2.006-1.741-3.246-2.348
		C340.563,120.984,340.662,121.059,343.741,120.628z M340.173,117.977c0.044,0.051,0.088,0.098,0.129,0.144
		c0.044-0.044,0.086-0.091,0.13-0.134c-0.067-0.044-0.133-0.087-0.201-0.13C340.209,117.901,340.188,117.946,340.173,117.977z"/>
	<path fill-rule="evenodd" clip-rule="evenodd" fill="#085AA7" d="M272.483,106.666c-1.738,2.984-2.231,6.051-2.935,9.038
		c-0.445,1.882-0.881,3.759-1.494,5.601c-0.461,1.381-1.115,1.357-2.079,0.551c-1.121-0.938-1.867-2.125-2.329-3.497
		c-1.313-3.907-2.477-7.781-2.286-12.04c0.256-5.731,0.063-11.484,0.063-17.26c0.757-0.172,1.179,1.272,1.813,0.2
		c0.566-0.959-0.148-1.746-0.488-2.528c-0.506-1.154-1.137,0.006-1.883,0.047c0.146-1.12,0.794-1.581,1.771-1.652
		c1.052-0.076,1.194,0.739,1.425,1.5c1.229,4.044,0.755,8.19,0.767,12.305c0.01,3.868-0.293,7.754,0.803,11.544
		c0.087,0.301,0.208,0.593,0.324,0.918c2.65-2.385,3.858-5.208,3.668-8.757c-0.036-0.681,0.255-0.76,0.735-0.825
		c1.084-0.146,2.038,0.195,2.923,0.783c2.103,1.397,3.212,3.469,3.914,5.812c0.186,0.617,0.321,1.254,0.576,1.84
		c0.2,0.463,0.518,0.995,1.142,0.825c0.608-0.168,0.325-0.763,0.332-1.16c0.105-6.131,0.198-12.263,0.269-18.393
		c0.023-2.005,0.564-4.271-2.437-4.888c0.265-0.237,0.306-0.304,0.363-0.321c5.654-1.555,6.802-2.5,7.296,4.467
		c0.538,7.596,1.429,15.16,0.699,22.793c-0.248,2.575-0.732,5.104-1.238,7.634c-0.241,1.209-0.821,1.528-2.039,1.313
		c-1.457-0.261-2.726-0.793-3.74-1.844c-1.945-2.011-3.597-4.183-4.176-7.04C273.787,111.381,273.126,109.175,272.483,106.666z
		 M282.309,96.826c-0.276,4.26,0.586,8.276,0.326,12.326C283.756,106.417,283.573,100.139,282.309,96.826z"/>
	<path fill-rule="evenodd" clip-rule="evenodd" fill="#0759A7" d="M189.732,121.572c-2.947,0.744-5.151-0.348-6.793-2.783
		c-2.823,3.158-9.056,3.592-12.856,0.99c-2.304-1.58-3.886-3.797-5.106-6.225c-0.886-1.76-0.33-3.537,0.768-5.107
		c1.293-1.851,2.993-3.357,4.334-5.189c0.922-1.259,2.632-1.526,4.168-1.819c2.026-0.384,4.087-0.64,6.063-1.201
		c2.45-0.696,3.438-2.26,3.259-4.803c-0.099-1.407-0.043-2.843-0.552-4.206c-0.55-1.473-1.402-1.979-2.987-1.339
		c-2.628,1.063-4.797,2.734-6.812,4.665c-0.745,0.714-1.493,1.436-2.313,2.058c-0.811,0.614-1.635,1.694-2.637,0.099
		c-1.006-1.603-0.906-2.423,0.609-3.319c1.942-1.146,3.859-2.339,5.816-3.457c1.748-0.999,3.607-1.915,5.629-1.898
		c3.683,0.03,5.399,0.662,5.909,4.242c0.57,4.004,0.41,7.982,0.111,11.973c-0.251,3.348-0.478,6.692-0.181,10.045
		c0.197,2.22,0.612,4.346,2.574,5.813C189.176,120.437,189.64,120.852,189.732,121.572z M181.33,109.211
		c0.084-1.027,0.026-2.091,0.288-3.07c0.321-1.196-0.225-1.374-1.133-1.244c-5.607,0.799-6.854,1.049-8.182,6.417
		c-0.247,0.999-0.486,1.999-0.723,3.001c-0.229,0.969,0.066,1.805,0.778,2.447c1.991,1.794,7.029,0.609,8.07-1.857
		C181.2,113.073,181.142,111.127,181.33,109.211z"/>
	<path fill-rule="evenodd" clip-rule="evenodd" fill="#0759A7" d="M151.098,116.955c3.599,0.016,4.324-0.546,5.192-4.043
		c0.154-0.623,0.252-1.302,0.577-1.833c0.676-1.112,1.607-1.499,2.702-0.476c0.566,0.528,1.141,1.06,1.629,1.655
		c2.319,2.831,3.026,6.045-1.521,8.297c-3.702,1.832-7.603,2.31-11.457,1.054c-6.582-2.144-9.288-7.869-7.724-15.235
		c1.586-7.461,6.415-12.296,12.683-15.989c0.865-0.51,1.921-0.805,2.924-0.946c4.469-0.632,5.241,0.073,5.869,4.853
		c0.594,4.521-1.614,8.153-5.127,10.886c-2.185,1.699-4.535,3.191-6.866,4.691c-1.429,0.92-2.89,0.929-4.284-0.237
		c-1.443-1.208-0.782-2.503-0.345-3.873c0.24-0.747,0.597-0.758,1.265-0.736c3.703,0.118,10.284-4.603,11.453-8.14
		c0.235-0.711,0.344-1.367-0.373-1.911c-0.927-0.7-1.968-0.815-2.91-0.271c-1.671,0.963-3.46,1.87-4.814,3.196
		c-1.973,1.928-3.906,3.949-5.462,6.268c-1.33,1.982-2.091,4.112-1.87,6.553c0.344,3.798,1.802,5.415,5.569,5.994
		C149.164,116.858,150.135,116.876,151.098,116.955z M158.962,113.496c-0.718,0.801-1.199,1.305-1.64,1.84
		c-0.47,0.565,0,0.985,0.337,1.322c0.349,0.349,0.817,0.804,1.335,0.564c0.525-0.244,0.135-0.795,0.118-1.21
		C159.082,115.307,159.029,114.602,158.962,113.496z"/>
	<path fill-rule="evenodd" clip-rule="evenodd" fill="#0759A7" d="M188.496,90.019c2.544-0.311,4.473,0.72,6.313,2.033
		c0.583,0.414,0.488,1.008,0.473,1.579c-0.141,5.675-0.288,11.351-0.438,17.025c-0.008,0.257-0.106,0.52-0.076,0.766
		c0.158,1.25,0.574,2.61,1.625,3.122c0.787,0.383,1.661-0.743,2.37-1.37c2.19-1.942,3.124-4.537,3.589-7.32
		c0.624-3.721,0.362-7.466,0.052-11.191c-0.137-1.632-1.482-2.81-2.263-4.515c1.664,0.628,3.255,0.396,4.792,0.739
		c2.14,0.479,2.89,1.516,2.671,3.693c-0.424,4.235-1.109,8.447-0.97,12.729c0.148,4.535,1.111,8.724,4.852,11.744
		c0.814,0.656,0.271,0.918-0.178,1.262c-2.049,1.572-5.956,0.476-7.252-2.269c-0.764-1.616-1.4-1.634-2.612-0.604
		c-5.337,4.545-8.314,1.885-11.072-2.369c-2.281-3.515-1.283-7.087-0.942-10.678c0.298-3.143,0.786-6.271,1.301-9.388
		C191.084,92.854,190.688,91.113,188.496,90.019z"/>
	<path fill-rule="evenodd" clip-rule="evenodd" fill="#0759A7" d="M254.838,105.37c4.604-0.146,4.676-0.137,4.2,4.229
		c-0.462,4.252-2.312,8.063-4.483,11.636c-1.586,2.607-5.674,3.164-8.346,1.61c-2.248-1.306-4.095-3.075-4.932-5.52
		c-2.497-7.288-3.142-14.759-0.865-22.187c1.648-5.374,5.715-8.235,11.224-9.08c1.244-0.19,2.459-0.022,3.618,0.405
		c2.523,0.934,3.599,3.684,2.173,5.94c-1.829,2.9-4.427,5.182-6.656,7.763c-2.531,2.927-5.216,5.724-7.383,8.948
		c-1.806,2.691,0.326,7.425,3.513,7.812c3.729,0.453,8.601-2.968,9.41-6.609C256.701,108.57,256.342,107.292,254.838,105.37z
		 M242.348,102.334c2.161-1.836,4.147-3.463,6.067-5.167c1.599-1.422,3.006-3.017,3.7-5.104c0.277-0.829,0.813-1.69-0.016-2.507
		c-0.91-0.896-1.987-0.807-3.063-0.391c-3.656,1.416-7.569,8.108-7.029,12.001C242.05,101.472,242.18,101.768,242.348,102.334z
		 M241.689,106.879c1.484-1.339,1.484-1.339,2.046-2.667C240.888,104.836,240.888,104.836,241.689,106.879z"/>
	<path fill-rule="evenodd" clip-rule="evenodd" fill="#0558A6" d="M318.719,124.271c-0.641,0.068-1.115-0.179-1.512-0.677
		c-0.991-1.246-1.573-2.632-1.733-4.229c-0.197-1.966,1.239-2.529,2.547-3.391c3.467-2.279,5.387-5.616,6.17-9.66
		c0.218-1.122-0.12-1.796-1.17-2.3c-1.786-0.854-3.712-1.033-5.601-1.416c-1.835-0.371-3.741-0.684-4.941-2.332
		c-0.954-1.311-1.259-2.707-0.55-4.345c1.991-4.583,4.386-8.903,7.675-12.691c0.69-0.793,1.375-2.124,2.623-1.197
		c1.125,0.836,1.849,2.114,1.287,3.709c-0.628,1.778-1.606,3.373-2.536,4.99c-0.939,1.631-1.704,3.322-2.08,5.177
		c-0.464,2.296,0.222,3.548,2.459,4.316c0.909,0.312,1.854,0.581,2.804,0.713c5.62,0.781,6.725,4.914,6.121,8.977
		c-0.796,5.356-3.808,9.489-7.83,12.944C321.395,123.768,320.098,124.163,318.719,124.271z M316.567,92.1
		c0.358-0.819,0.716-1.64,1.223-2.8C316.033,90.619,316.033,90.619,316.567,92.1z"/>
	<path fill-rule="evenodd" clip-rule="evenodd" fill="#085AA7" d="M302.707,114.942c-1.949,3.204-4.297,5.054-6.914,6.63
		c-1.508,0.91-2.731,0.66-4.298-0.123c-3.251-1.626-3.714-4.391-3.848-7.511c-0.193-4.52,1.139-8.808,1.845-13.192
		c0.484-3.016,0.629-6.039-0.252-9.017c-0.152-0.52-0.181-1.156-0.785-1.471c-0.393-0.204-1.429,0.182-0.9-0.911
		c0.423-0.875,1.21-1.063,1.942-0.596c1.403,0.894,2.496,2.087,2.437,3.91c-0.128,3.868-0.301,7.735-0.429,11.603
		c-0.136,4.132-0.147,8.247,0.807,12.323c0.351,1.504,0.925,1.542,2.055,0.866c3.47-2.068,6.381-4.498,7.126-8.834
		c0.602-3.487,1.724-6.881,1.755-10.47c0.016-1.756-0.127-3.478-0.699-5.147c-0.346-1.008-0.037-1.314,0.985-0.98
		c0.796,0.257,1.626,0.404,2.421,0.655c0.679,0.214,1.048,0.657,0.98,1.446c-0.725,8.576,1.237,16.789,3.394,24.975
		c0.131,0.5,0.287,0.994,0.403,1.496c0.152,0.66,0.778,1.486,0.158,1.961c-0.694,0.529-1.585,0.004-2.372-0.297
		C305.389,121.063,303.671,118.649,302.707,114.942z"/>
	<path fill-rule="evenodd" clip-rule="evenodd" fill="#085AA7" d="M135.804,99.566c2.205,2.436,2.668,2.354,3.936-0.71
		c0.829-1.998,1.222-4.073,0.796-6.24c-0.401-2.043-1.637-2.49-3.328-1.229c-4.5,3.361-6.301,8.066-6.47,13.46
		c-0.18,5.713,0.661,11.317,2.395,16.771c0.176,0.551,0.28,1.026-0.177,1.396c-2.537,2.059-5.701,1.19-6.937-1.879
		c-1.972-4.894-1.785-9.988-1.308-15.085c0.379-4.046,0.888-8.079,1.384-12.113c0.165-1.347-0.05-2.536-0.886-3.629
		c-0.352-0.463-0.581-1.051-0.139-1.601c0.49-0.609,0.922-0.01,1.351,0.146c1.069,0.389,2.183,0.133,3.264,0.283
		c2.032,0.285,2.544,1.2,1.884,3.113c-0.521,1.509-0.925,3.055-0.821,4.938c1.211-0.836,1.843-1.88,2.562-2.838
		c0.928-1.237,1.734-2.58,3.017-3.51c2.351-1.701,4.483-1.116,5.565,1.541c0.878,2.154,0.643,4.333-0.123,6.432
		c-0.817,2.237-1.805,4.413-2.74,6.604c-0.583,1.367-1.85,1.592-3.068,1.472c-1.281-0.125-1.516-1.328-1.552-2.351
		C134.342,102.77,134.98,101.155,135.804,99.566z M127.099,96.313c-1.13,3.52-0.668,6.257,1.257,7.668
		C127.942,101.46,127.552,99.075,127.099,96.313z"/>
	<path fill-rule="evenodd" clip-rule="evenodd" fill="#085AA7" d="M115.177,88.283c0.401-0.215,0.739,0.021,1.096,0.147
		c5.785,2.047,5.744,2.039,4.578,8.017c-1.205,6.18-1.739,12.39-0.215,18.6c0.335,1.365,0.9,2.681,1.446,3.981
		c0.304,0.725-0.089,1.075-0.508,1.489c-0.435,0.431-1.017,0.57-1.351,0.085c-1.469-2.124-4.183-2.781-5.649-5.025
		c-0.973,1.427-1.816,2.801-2.797,4.07c-1.547,2-2.57,2.024-4.372,0.229c-2.007-2.002-2.573-4.548-2.678-7.255
		c-0.141-3.629,0.604-7.188,0.902-10.785c0.207-2.493,0.056-5.005,0.587-7.484c0.253-1.185,0.142-2.444-0.377-3.61
		c-0.25-0.562-0.729-1.329,0.142-1.615c1.008-0.333,1.68,0.474,1.727,1.345c0.108,2.05,0.646,4.063,0.397,6.146
		c-0.709,5.924-0.535,11.829,0.451,17.726c0.292,1.747,0.882,1.534,1.932,0.72c1.361-1.056,1.848-2.605,2.33-4.139
		c0.563-1.787,1.051-3.589,2.396-4.999c0.203-0.213,0.4-0.55,0.397-0.825c-0.045-3.632,1.074-7.133,1.164-10.758
		c0.054-2.219-0.681-4.147-1.573-6.077L115.177,88.283z"/>
	<path fill-rule="evenodd" clip-rule="evenodd" fill="#F0843D" d="M201.016,66.409c-1.735-0.152-3.594-0.344-5.172-1.499
		c-1.995-1.461-1.992-3.467-0.002-4.918c2.674-1.949,7.961-1.954,10.609-0.01c1.978,1.452,1.976,3.51-0.005,4.931
		C205.192,65.812,203.015,66.426,201.016,66.409z"/>
	<path fill-rule="evenodd" clip-rule="evenodd" fill="#0673BA" d="M354.812,65.62c-1.874-0.11-3.731-0.335-5.327-1.465
		c-2.019-1.431-2.026-3.458-0.046-4.925c2.666-1.972,7.996-1.968,10.637,0.007c1.889,1.417,1.919,3.387,0.046,4.833
		C358.563,65.271,356.696,65.471,354.812,65.62z"/>
	<path fill-rule="evenodd" clip-rule="evenodd" fill="#EA3E33" d="M199.057,82.849c-1.779,0.001-3.48-0.361-4.993-1.307
		c-2.267-1.416-2.305-3.627-0.14-5.151c2.574-1.813,7.729-1.832,10.329-0.038c2.218,1.53,2.22,3.669-0.028,5.141
		C202.661,82.518,200.894,82.834,199.057,82.849z"/>
	<path fill-rule="evenodd" clip-rule="evenodd" fill="#1CB36B" d="M322.831,39.844c-1.301,0.021-3.115-0.354-4.693-1.49
		c-1.837-1.32-1.88-3.236-0.146-4.692c2.614-2.199,8.511-2.17,11.094,0.052c1.634,1.406,1.572,3.22-0.155,4.58
		C327.682,39.274,325.646,39.851,322.831,39.844z"/>
	<path fill-rule="evenodd" clip-rule="evenodd" fill="#F8D84E" d="M236.334,38.253c-1.936,0.091-3.736-0.354-5.283-1.529
		c-1.826-1.386-1.805-3.304-0.021-4.693c2.676-2.087,8.325-2.062,10.968,0.048c1.649,1.315,1.65,3.302,0.001,4.608
		C240.664,37.746,238.801,38.261,236.334,38.253z"/>
	<path fill-rule="evenodd" clip-rule="evenodd" fill="#F8B63B" d="M213.127,49.938c-1.606,0.074-3.297-0.279-4.812-1.246
		c-2.171-1.384-2.259-3.513-0.238-5.046c2.676-2.03,8.188-1.98,10.797,0.098c1.719,1.369,1.747,3.116,0.074,4.585
		C217.732,49.399,215.81,49.947,213.127,49.938z"/>
	<path fill-rule="evenodd" clip-rule="evenodd" fill="#E74A7B" d="M348.803,101.509c-2.258,0.013-4.158-0.285-5.76-1.535
		c-1.82-1.423-1.809-3.282-0.024-4.705c2.588-2.06,8.191-2.09,10.791-0.056c1.947,1.525,1.895,3.514-0.147,4.932
		C352.115,101.217,350.359,101.531,348.803,101.509z"/>
	<path fill-rule="evenodd" clip-rule="evenodd" fill="#00BBF1" d="M343.701,49.935c-1.857,0.068-3.604-0.345-5.129-1.408
		c-1.992-1.391-1.954-3.502,0.029-4.921c2.661-1.906,7.806-1.925,10.475-0.039c2.085,1.473,2.098,3.62-0.027,5.046
		C347.445,49.69,345.616,50.031,343.701,49.935z"/>
	<path fill-rule="evenodd" clip-rule="evenodd" fill="#085AA7" d="M115.201,88.265c-0.091-0.056-0.184-0.108-0.275-0.164
		c0.076-0.033,0.154-0.067,0.23-0.103c0.007,0.095,0.014,0.191,0.02,0.285L115.201,88.265z"/>
	<path fill-rule="evenodd" clip-rule="evenodd" fill="#F8FAFC" d="M90.826,113.754c0.271-4.179-0.837-8.195-0.498-12.315
		c0.323-3.923,2.871-6.321,5.597-8.625c0.553-0.468,1.17-0.349,1.744,0.151c1.682,1.47,1.737,5.057,0.073,6.652
		c-0.077,0.074-0.229,0.209-0.226,0.213c1.839,2.16-1.215,3.224-1.197,5.098c0.009,1.022-1.602,1.851-1.611,3.378
		c-0.001,0.405-1.467,0.096-2.251-0.312c-0.213,1.13,0.731,1.217,1.133,1.704c0.491,0.597,0.375,1.36-0.332,1.23
		c-1.469-0.27-1.118,0.561-1.188,1.362C92.018,112.884,91.804,113.541,90.826,113.754z"/>
	<path fill-rule="evenodd" clip-rule="evenodd" fill="#F8FAFC" d="M86.862,114.575c-0.438-1.697-0.48-3.402-0.184-5.118
		C86.725,111.162,87.344,112.855,86.862,114.575z"/>
	<path fill-rule="evenodd" clip-rule="evenodd" fill="#FDFDFE" d="M219.287,106.807c0.203-5.995,3.02-10.498,8.264-13.42
		c3.138-1.747,5.506-0.242,5.502,3.349c-0.007,3.71-0.633,7.307-2.306,10.659c-1.059,2.119-2.573,3.848-4.633,5.063
		c-2.858,1.684-6.169,0.055-6.622-3.265C219.388,108.427,219.357,107.652,219.287,106.807z"/>
	<path fill-rule="evenodd" clip-rule="evenodd" fill="#F8FAFC" d="M232.789,92.316c-5.046-3.193-7.846,0.754-11.334,3.773
		C224.625,90.211,230.408,88.395,232.789,92.316z"/>
	<path fill-rule="evenodd" clip-rule="evenodd" fill="#F8FAFC" d="M213.941,66.878c0,3.136,0,6.271,0,9.405
		c-0.084,0-0.17,0.001-0.254,0.001c0-3.136,0-6.271,0-9.407C213.771,66.878,213.857,66.878,213.941,66.878z"/>
	<path fill-rule="evenodd" clip-rule="evenodd" fill="#F8FAFC" d="M343.741,120.628c-3.079,0.431-3.178,0.356-3.246-2.348
		C341.735,118.887,342.42,120.18,343.741,120.628z"/>
	<path fill-rule="evenodd" clip-rule="evenodd" fill="#F8FAFC" d="M340.173,117.977c0.015-0.03,0.036-0.075,0.058-0.12
		c0.068,0.043,0.134,0.086,0.201,0.13c-0.044,0.043-0.086,0.09-0.13,0.134C340.261,118.074,340.217,118.027,340.173,117.977z"/>
	<path fill-rule="evenodd" clip-rule="evenodd" fill="#F8FAFC" d="M282.309,96.826c1.265,3.313,1.447,9.591,0.326,12.326
		C282.895,105.103,282.032,101.086,282.309,96.826z"/>
	<path fill-rule="evenodd" clip-rule="evenodd" fill="#F8FAFC" d="M181.33,109.211c-0.188,1.916-0.129,3.862-0.901,5.693
		c-1.041,2.467-6.079,3.651-8.07,1.857c-0.712-0.643-1.008-1.479-0.778-2.447c0.237-1.002,0.476-2.002,0.723-3.001
		c1.328-5.368,2.575-5.618,8.182-6.417c0.908-0.13,1.454,0.048,1.133,1.244C181.355,107.12,181.414,108.184,181.33,109.211z"/>
	<path fill-rule="evenodd" clip-rule="evenodd" fill="#F8FAFC" d="M158.962,113.496c0.067,1.105,0.12,1.811,0.149,2.517
		c0.018,0.415,0.408,0.966-0.118,1.21c-0.518,0.239-0.986-0.216-1.335-0.564c-0.337-0.337-0.807-0.757-0.337-1.322
		C157.763,114.801,158.244,114.297,158.962,113.496z"/>
	<path fill-rule="evenodd" clip-rule="evenodd" fill="#F8FAFC" d="M242.348,102.334c-0.168-0.566-0.298-0.862-0.34-1.167
		c-0.54-3.893,3.373-10.585,7.029-12.001c1.075-0.416,2.152-0.506,3.063,0.391c0.828,0.816,0.293,1.678,0.016,2.507
		c-0.694,2.087-2.102,3.682-3.7,5.104C246.495,98.871,244.509,100.498,242.348,102.334z"/>
	<path fill-rule="evenodd" clip-rule="evenodd" fill="#F8FAFC" d="M241.689,106.879c-0.802-2.043-0.802-2.043,2.046-2.667
		C243.174,105.54,243.174,105.54,241.689,106.879z"/>
	<path fill-rule="evenodd" clip-rule="evenodd" fill="#F8FAFC" d="M316.567,92.1c-0.534-1.48-0.534-1.48,1.223-2.8
		C317.283,90.46,316.926,91.28,316.567,92.1z"/>
	<path fill-rule="evenodd" clip-rule="evenodd" fill="#F8FAFC" d="M127.099,96.313c0.453,2.763,0.843,5.147,1.257,7.668
		C126.43,102.569,125.968,99.832,127.099,96.313z"/>
	<path fill-rule="evenodd" clip-rule="evenodd" fill="#92C953" d="M297.485,32.064c-1.857,0.069-3.603-0.344-5.129-1.407
		c-1.993-1.391-1.953-3.503,0.03-4.923c2.66-1.906,7.804-1.924,10.475-0.038c2.083,1.473,2.098,3.62-0.027,5.045
		C301.229,31.821,299.401,32.161,297.485,32.064z"/>
	<path fill-rule="evenodd" clip-rule="evenodd" fill="#F1E95A" d="M264.865,32.064c-1.857,0.069-3.604-0.344-5.13-1.407
		c-1.993-1.391-1.953-3.503,0.03-4.923c2.659-1.906,7.804-1.924,10.474-0.038c2.084,1.473,2.099,3.62-0.026,5.045
		C268.608,31.821,266.779,32.161,264.865,32.064z"/>
	<path fill-rule="evenodd" clip-rule="evenodd" fill="#D14699" d="M359.785,82.783c-2.259,0.013-4.158-0.285-5.76-1.535
		c-1.82-1.422-1.808-3.283-0.025-4.703c2.588-2.061,8.193-2.091,10.791-0.058c1.948,1.526,1.895,3.516-0.147,4.932
		C363.096,82.492,361.341,82.805,359.785,82.783z"/>
</g>
</svg>
